<svg width="48" height="60" viewBox="0 0 48 60" fill="none" xmlns="http://www.w3.org/2000/svg">
<g id="ranking" clip-path="url(#clip0_594_8435)">
<path id="3" d="M17.0606 58.0311C26.9998 58.1613 36.2274 52.8847 37.7938 43.4944C38.9224 36.7279 35.1454 32.4575 29.5423 30.7234L29.5999 30.3782C35.4749 28.3792 39.2342 24.3458 40.144 18.8911C41.6067 10.1223 35.6235 5.2002 25.6143 5.06917C19.5949 4.99037 14.2222 7.34192 9.10913 11.0808L13.3106 17.4327C16.8626 14.6422 20.1602 12.9554 23.8699 13.004C28.2795 13.0617 30.3962 15.5113 29.7282 19.516C28.9681 24.073 25.3586 27.2088 15.8394 27.0842L14.6186 34.4031C25.8876 34.5506 28.3791 37.6971 27.5383 42.7374C26.7782 47.2945 22.7708 49.8715 17.4513 49.8018C12.7617 49.7404 9.44358 47.3443 6.85908 44.335L0.888402 50.6922C3.83706 54.8826 8.87135 57.9239 17.0606 58.0311Z" fill="white"/>
</g>
<defs>
<clipPath id="clip0_594_8435">
<rect width="48" height="60" fill="white"/>
</clipPath>
</defs>
</svg>
