<svg width="48" height="60" viewBox="0 0 48 60" fill="none" xmlns="http://www.w3.org/2000/svg">
<g id="ranking" clip-path="url(#clip0_594_8441)">
<path id="6" d="M20.0004 58.0696C28.8196 58.1851 37.4031 51.7237 39.1537 41.2287C40.985 30.2504 35.5963 25.1285 26.917 25.0149C23.4173 24.9691 18.2192 27.1153 14.856 30.8771L14.1242 37.7872C17.4165 33.6093 20.9596 32.1334 23.8294 32.1709C28.239 32.2287 30.7181 35.029 29.7045 41.1051C28.668 47.3192 24.9885 50.4541 21.1388 50.4037C16.0292 50.3368 12.9273 45.3832 15.1386 32.1264C17.5111 17.9029 23.2754 13.2038 29.5749 13.2862C32.5146 13.3247 35.4579 15.024 36.8738 17.0492L43.4053 11.1146C40.7969 7.8282 36.6034 5.21302 30.3039 5.13056C19.8048 4.99312 8.85664 13.015 5.68941 32.0027C2.68343 50.0237 10.2012 57.9414 20.0004 58.0696Z" fill="white"/>
</g>
<defs>
<clipPath id="clip0_594_8441">
<rect width="48" height="60" fill="white"/>
</clipPath>
</defs>
</svg>
