<svg width="48" height="60" viewBox="0 0 48 60" fill="none" xmlns="http://www.w3.org/2000/svg">
<g id="ranking" clip-path="url(#clip0_594_8445)">
<path id="8" d="M18.5305 58.0504C28.9596 58.1869 36.938 52.4096 38.2279 44.6765C39.4027 37.6338 36.1625 33.5087 31.8291 30.8917L31.8866 30.5465C35.6495 28.1739 39.6417 24.0051 40.494 18.8957C41.853 10.7483 36.8719 5.28573 27.7027 5.1657C18.6734 5.0475 11.1487 10.208 9.77814 18.4244C8.8798 23.81 11.1631 27.7841 14.6105 30.6663L14.5645 30.9425C9.39025 33.3659 4.60502 37.6626 3.51089 44.222C2.17489 52.2313 8.59137 57.9203 18.5305 58.0504ZM26.8417 27.9894C21.7392 25.7775 18.0827 23.3077 18.8774 18.5435C19.5569 14.4698 22.7367 12.228 26.3064 12.2747C30.576 12.3306 32.6821 15.2644 31.9795 19.4762C31.4728 22.5143 29.7992 25.3986 26.8417 27.9894ZM19.9383 50.8723C15.1087 50.8091 11.7543 47.7898 12.5259 43.1637C13.1594 39.3661 15.6951 35.9395 18.9334 33.7676C25.1221 36.6165 29.5947 38.8201 28.7078 44.1367C27.9707 48.5556 24.4179 50.931 19.9383 50.8723Z" fill="white"/>
</g>
<defs>
<clipPath id="clip0_594_8445">
<rect width="48" height="60" fill="white"/>
</clipPath>
</defs>
</svg>
