<svg width="48" height="60" viewBox="0 0 48 60" fill="none" xmlns="http://www.w3.org/2000/svg">
<g id="ranking" clip-path="url(#clip0_594_8447)">
<path id="9" d="M15.8008 58.0147C26.0899 58.1493 37.0726 49.9203 40.2974 30.5874C43.2458 12.9116 35.6935 5.20111 25.8243 5.07192C17.0051 4.95647 8.50311 11.3497 6.74098 21.9137C4.93278 32.7539 10.2285 38.013 18.9077 38.1266C22.5474 38.1743 27.6171 35.9572 31.0503 32.1963L31.642 25.2843C28.4197 29.4632 24.9351 31.0091 21.9953 30.9706C17.5857 30.9129 15.1297 27.9745 16.1202 22.0365C17.1798 15.6843 20.8478 12.6184 24.7674 12.6697C29.807 12.7357 33.025 17.414 30.8482 30.4637C28.4066 45.1015 22.6308 49.8696 16.5414 49.7899C13.4616 49.7496 10.5768 48.1203 8.97398 45.9542L2.48942 52.0279C5.10936 55.2452 9.29131 57.9294 15.8008 58.0147Z" fill="white"/>
</g>
<defs>
<clipPath id="clip0_594_8447">
<rect width="48" height="60" fill="white"/>
</clipPath>
</defs>
</svg>
