<svg width="52" height="52" viewBox="0 0 52 52" fill="none" xmlns="http://www.w3.org/2000/svg">
<g id="Property 1=Instragram">
<rect width="52" height="52" rx="26" fill="#2B2B2B"/>
<g id="instagram" clip-path="url(#clip0_14_459)">
<path id="Vector" d="M26.007 17.7068C21.4207 17.7068 17.7213 21.4061 17.7213 25.9925C17.7213 30.5788 21.4207 34.2781 26.007 34.2781C30.5933 34.2781 34.2927 30.5788 34.2927 25.9925C34.2927 21.4061 30.5933 17.7068 26.007 17.7068ZM26.007 31.3792C23.0432 31.3792 20.6202 28.9635 20.6202 25.9925C20.6202 23.0215 23.036 20.6057 26.007 20.6057C28.978 20.6057 31.3938 23.0215 31.3938 25.9925C31.3938 28.9635 28.9708 31.3792 26.007 31.3792V31.3792ZM36.5642 17.3679C36.5642 18.4423 35.6989 19.3005 34.6316 19.3005C33.5571 19.3005 32.699 18.4351 32.699 17.3679C32.699 16.3006 33.5643 15.4353 34.6316 15.4353C35.6989 15.4353 36.5642 16.3006 36.5642 17.3679ZM42.0519 19.3293C41.9293 16.7405 41.338 14.4473 39.4415 12.558C37.5521 10.6687 35.259 10.0774 32.6701 9.94756C30.002 9.79613 22.0048 9.79613 19.3366 9.94756C16.755 10.0702 14.4619 10.6615 12.5653 12.5508C10.6688 14.4401 10.0847 16.7333 9.95488 19.3221C9.80345 21.9903 9.80345 29.9875 9.95488 32.6556C10.0775 35.2444 10.6688 37.5376 12.5653 39.4269C14.4619 41.3163 16.7478 41.9076 19.3366 42.0374C22.0048 42.1888 30.002 42.1888 32.6701 42.0374C35.259 41.9148 37.5521 41.3235 39.4415 39.4269C41.3308 37.5376 41.9221 35.2444 42.0519 32.6556C42.2033 29.9875 42.2033 21.9975 42.0519 19.3293V19.3293ZM38.605 35.5185C38.0425 36.9319 36.9536 38.0207 35.533 38.5904C33.4057 39.4341 28.3579 39.2394 26.007 39.2394C23.6562 39.2394 18.6011 39.4269 16.481 38.5904C15.0676 38.028 13.9787 36.9391 13.409 35.5185C12.5653 33.3912 12.76 28.3433 12.76 25.9925C12.76 23.6416 12.5725 18.5866 13.409 16.4665C13.9715 15.0531 15.0604 13.9642 16.481 13.3945C18.6083 12.5508 23.6562 12.7455 26.007 12.7455C28.3579 12.7455 33.4129 12.558 35.533 13.3945C36.9464 13.957 38.0353 15.0459 38.605 16.4665C39.4487 18.5938 39.254 23.6416 39.254 25.9925C39.254 28.3433 39.4487 33.3984 38.605 35.5185Z" fill="#6B6B6B"/>
</g>
</g>
<defs>
<clipPath id="clip0_14_459">
<rect width="32.3062" height="36.9213" fill="white" transform="translate(9.84692 7.53906)"/>
</clipPath>
</defs>
</svg>
