<svg width="52" height="52" viewBox="0 0 52 52" fill="none" xmlns="http://www.w3.org/2000/svg">
<g id="Property 1=Twitter">
<rect width="52" height="52" rx="26" fill="#2B2B2B"/>
<g id="twitter" clip-path="url(#clip0_14_462)">
<path id="Vector" d="M38.7106 19.483C38.7309 19.7672 38.7309 20.0515 38.7309 20.3358C38.7309 29.0058 32.132 38.9957 20.0711 38.9957C16.3553 38.9957 12.9036 37.9195 10 36.0515C10.5279 36.1124 11.0355 36.1327 11.5838 36.1327C14.6497 36.1327 17.4721 35.0972 19.7259 33.3307C16.8426 33.2698 14.4264 31.3815 13.5939 28.7825C14 28.8434 14.4061 28.884 14.8325 28.884C15.4213 28.884 16.0102 28.8027 16.5584 28.6607C13.5533 28.0515 11.2994 25.4119 11.2994 22.2241V22.1429C12.1725 22.6302 13.1878 22.9348 14.2639 22.9754C12.4974 21.7977 11.3401 19.7875 11.3401 17.5134C11.3401 16.2952 11.6649 15.1784 12.2334 14.2038C15.4619 18.1835 20.3147 20.7824 25.7563 21.0667C25.6548 20.5794 25.5938 20.0719 25.5938 19.5642C25.5938 15.95 28.5177 13.0059 32.1522 13.0059C34.0405 13.0059 35.7461 13.7977 36.9441 15.0769C38.4263 14.7927 39.8476 14.2444 41.1065 13.4932C40.6191 15.016 39.5836 16.2952 38.2233 17.1074C39.5431 16.9653 40.8223 16.5997 41.9999 16.0922C41.1066 17.3916 39.9898 18.5489 38.7106 19.483V19.483Z" fill="#6B6B6B"/>
</g>
</g>
<defs>
<clipPath id="clip0_14_462">
<rect width="32" height="32" fill="white" transform="translate(10 10)"/>
</clipPath>
</defs>
</svg>
