<svg width="30" height="30" viewBox="0 0 30 30" fill="none" xmlns="http://www.w3.org/2000/svg">
<g id="Device=Desktop, Name=18" clip-path="url(#clip0_29_3606)">
<path id="path" d="M26.6178 30H3.38161C2.93728 30 2.49733 29.9124 2.0869 29.7422C1.67647 29.5719 1.30359 29.3225 0.989679 29.008C0.675769 28.6935 0.426986 28.3202 0.257495 27.9095C0.0880039 27.4988 0.00116958 27.0587 0.00195845 26.6143V3.38268C0.0017614 2.93853 0.0890368 2.49868 0.258868 2.08829C0.4287 1.67789 0.677794 1.30501 0.991785 0.99088C1.30577 0.676751 1.6785 0.42752 2.08882 0.257506C2.49914 0.0874928 2.93902 1.28739e-06 3.38317 1.3311e-06H26.6193C27.0637 -0.000393034 27.5038 0.0868454 27.9145 0.256682C28.3252 0.426519 28.6983 0.675613 29.0126 0.989782C29.3269 1.30395 29.5762 1.67701 29.7462 2.0876C29.9162 2.49819 30.0037 2.93828 30.0035 3.38268V26.6143C30.0035 27.5111 29.6473 28.3711 29.0132 29.0052C28.3791 29.6393 27.519 29.9955 26.6222 29.9955" fill="#CD1327"/>
<g id="group">
<path id="&#237;&#140;&#168;&#236;&#138;&#164;_4371" d="M6.35619 25.3347V10.4239H4.70605L6.8452 4.66064H10.9839V25.3347H6.35619Z" fill="white"/>
<path id="&#237;&#140;&#168;&#236;&#138;&#164;_4372" d="M25.001 16.8638C24.9735 16.6387 24.9102 16.4194 24.8135 16.2143C24.7252 16.0368 24.6006 15.8798 24.4475 15.7538C24.2669 15.6091 24.0724 15.4824 23.867 15.3757L22.4869 14.7262L23.867 13.9942C24.2273 13.7951 24.5301 13.5062 24.746 13.1557C24.9428 12.7235 25.0309 12.2496 25.0025 11.7756V5.11976C25.0025 4.99722 24.9539 4.87968 24.8672 4.79304C24.7806 4.70639 24.6631 4.65771 24.5405 4.65771H13.044C12.9214 4.65771 12.8039 4.70639 12.7172 4.79304C12.6306 4.87968 12.5819 4.99722 12.5819 5.11976V11.7756C12.5572 12.2447 12.6457 12.7129 12.8399 13.1406C13.052 13.4981 13.3554 13.7927 13.7189 13.9942L15.0991 14.7262L13.7189 15.3757C13.3174 15.5606 12.9892 15.8742 12.786 16.2668C12.6091 16.752 12.5311 17.2676 12.5564 17.7834V24.8712C12.5564 24.9938 12.6051 25.1113 12.6918 25.1979C12.7784 25.2846 12.8959 25.3332 13.0184 25.3332H24.5975C24.72 25.3332 24.8375 25.2846 24.9242 25.1979C25.0108 25.1113 25.0595 24.9938 25.0595 24.8712V17.7834C25.0614 17.4759 25.0418 17.1686 25.001 16.8638V16.8638ZM20.4558 21.0641C20.4558 21.1866 20.4071 21.3041 20.3205 21.3907C20.2338 21.4774 20.1163 21.5261 19.9938 21.5261H17.6176C17.4951 21.5261 17.3776 21.4774 17.291 21.3907C17.2043 21.3041 17.1556 21.1866 17.1556 21.0641V16.9268C17.1556 16.8043 17.2043 16.6868 17.291 16.6001C17.3776 16.5135 17.4951 16.4648 17.6176 16.4648H19.9938C20.1163 16.4648 20.2338 16.5135 20.3205 16.6001C20.4071 16.6868 20.4558 16.8043 20.4558 16.9268V21.0641ZM20.4558 12.5496C20.4558 12.6721 20.4071 12.7897 20.3205 12.8763C20.2338 12.963 20.1163 13.0116 19.9938 13.0116H17.6176C17.4951 13.0116 17.3776 12.963 17.291 12.8763C17.2043 12.7897 17.1556 12.6721 17.1556 12.5496V8.93143C17.1556 8.80889 17.2043 8.6914 17.291 8.60475C17.3776 8.5181 17.4951 8.46938 17.6176 8.46938H19.9938C20.1163 8.46938 20.2338 8.5181 20.3205 8.60475C20.4071 8.6914 20.4558 8.80889 20.4558 8.93143V12.5496Z" fill="white"/>
</g>
</g>
<defs>
<clipPath id="clip0_29_3606">
<rect width="30" height="30" fill="white"/>
</clipPath>
</defs>
</svg>
