<svg width="30" height="30" viewBox="0 0 30 30" fill="none" xmlns="http://www.w3.org/2000/svg">
<g id="Device=Desktop, Name=19">
<path id="ellipse" opacity="0.851" d="M15.2857 29.5714C23.1755 29.5714 29.5714 23.1755 29.5714 15.2857C29.5714 7.39593 23.1755 1 15.2857 1C7.39593 1 1 7.39593 1 15.2857C1 23.1755 7.39593 29.5714 15.2857 29.5714Z" fill="#FF153C"/>
<path id="19" d="M7.65306 21H14.3431V19.215H12.2581V9.9H10.6231C9.90306 10.335 9.15306 10.62 8.02806 10.83V12.195H10.0531V19.215H7.65306V21ZM19.1107 21.21C21.3157 21.21 23.3707 19.395 23.3707 15.195C23.3707 11.355 21.4807 9.705 19.3657 9.705C17.4757 9.705 15.8857 11.115 15.8857 13.41C15.8857 15.765 17.2057 16.89 19.0657 16.89C19.8457 16.89 20.8507 16.395 21.4507 15.57L21.3307 14.07C20.7907 14.985 20.1007 15.33 19.4707 15.33C18.5257 15.33 17.8957 14.7 17.8957 13.41C17.8957 12.03 18.5707 11.355 19.4107 11.355C20.4907 11.355 21.3457 12.36 21.3457 15.195C21.3457 18.375 20.2807 19.425 18.9757 19.425C18.3157 19.425 17.6407 19.08 17.2207 18.615L16.0507 19.95C16.7257 20.64 17.7157 21.21 19.1107 21.21Z" fill="white"/>
</g>
</svg>
