<svg width="115" height="20" viewBox="0 0 115 20" fill="none" xmlns="http://www.w3.org/2000/svg">
<g id="Device=Desktop" clip-path="url(#clip0_23_1966)">
<g id="group">
<path id="&#237;&#140;&#168;&#236;&#138;&#164; 4642" d="M40.3854 5.56986V14.3381C40.3854 17.866 38.4901 19.9293 35.1166 19.9293C31.743 19.9293 29.9102 17.866 29.9102 14.3381V5.56986C29.9102 2.06202 31.7696 0 35.1166 0C38.5114 0 40.3854 2.06335 40.3854 5.56986ZM36.8658 4.99233C36.8658 3.77459 36.2017 2.99166 35.179 2.99166C34.9286 2.99334 34.6814 3.04822 34.4536 3.1527C34.2258 3.25718 34.0226 3.4089 33.8574 3.59787C33.6922 3.78684 33.5687 4.0088 33.495 4.24914C33.4213 4.48947 33.3991 4.74276 33.4298 4.99233V14.9356C33.3927 15.1839 33.4094 15.4372 33.4787 15.6784C33.5479 15.9195 33.6682 16.1428 33.8313 16.333C33.9944 16.5232 34.1965 16.6759 34.4237 16.7805C34.6509 16.8851 34.8979 16.9393 35.1478 16.9393C35.3977 16.9393 35.6448 16.8851 35.8719 16.7805C36.0991 16.6759 36.3012 16.5232 36.4643 16.333C36.6274 16.1428 36.7477 15.9195 36.817 15.6784C36.8862 15.4372 36.9029 15.1839 36.8658 14.9356V4.99233Z" fill="white"/>
<path id="&#237;&#140;&#168;&#236;&#138;&#164; 4643" d="M50.0423 19.6986L48.5813 12.9337H46.3115V19.6986H42.833V0.209473H48.0394C51.2058 0.209473 53.1011 1.92071 53.1011 5.22048V7.63461C53.1252 8.35465 52.9987 9.07176 52.7296 9.73962C52.4606 10.4075 52.055 11.0112 51.5392 11.5119L53.5381 19.7L50.0423 19.6986ZM47.4604 10.0461C48.8138 10.0461 49.5642 9.30317 49.5642 7.77866V5.42721C49.5642 3.92138 48.7938 3.15979 47.4604 3.15979H46.3566V10.0474L47.4604 10.0461Z" fill="white"/>
<path id="&#236;&#130;&#172;&#234;&#176;&#129;&#237;&#152;&#149; 4382" d="M55.5986 0.209473H59.0771V19.6986H55.5986V0.209473Z" fill="white"/>
<path id="&#237;&#140;&#168;&#236;&#138;&#164; 4644" d="M65.2755 19.928C63.1305 19.908 61.4238 18.2781 61.4238 15.2251V5.56986C61.4238 2.04201 63.2833 0 66.7139 0C70.0676 0 71.7955 1.83661 71.7955 4.7029V7.30243H68.3423V4.97099C68.3423 3.54785 67.6782 2.99033 66.6767 2.99033C66.4302 2.99565 66.1875 3.05249 65.964 3.15721C65.7405 3.26193 65.5412 3.41224 65.3788 3.59857C65.2164 3.7849 65.0944 4.00316 65.0206 4.23945C64.9468 4.47574 64.9228 4.72488 64.9501 4.97099V14.9356C64.9501 16.3588 65.6793 16.9363 66.6581 16.9363C66.8941 16.9321 67.1269 16.8804 67.3425 16.784C67.5581 16.6877 67.7523 16.5488 67.9134 16.3756C68.0745 16.2023 68.1992 15.9983 68.2802 15.7757C68.3612 15.5531 68.3967 15.3164 68.3848 15.0797V12.048H66.6356V9.2004H71.8008V19.7012H68.9054L68.6517 18.1287H68.402C68.1623 18.7401 67.7221 19.2511 67.1542 19.5775C66.5863 19.9039 65.9246 20.0261 65.2782 19.924" fill="white"/>
<path id="&#236;&#130;&#172;&#234;&#176;&#129;&#237;&#152;&#149; 4383" d="M74.1152 0.209473H77.5937V19.6986H74.1152V0.209473Z" fill="white"/>
<path id="&#237;&#140;&#168;&#236;&#138;&#164; 4645" d="M87.0947 5.71664V0.209473H90.3859V19.6986H86.9699L83.4077 7.92271H83.2204L83.3453 12.3562V19.692H80.0342V0.209473H83.846L87.0124 10.7076H87.2209L87.0947 5.71664Z" fill="white"/>
<path id="&#237;&#140;&#168;&#236;&#138;&#164; 4646" d="M100.246 15.6773L96.1009 15.6359L95.4767 19.6986H91.8906L95.66 0.209473H100.784L104.491 19.6986H100.846L100.246 15.6773ZM99.7879 12.7283L98.8927 6.80901L98.2884 3.3025H98.06L97.4769 6.80901L96.5605 12.7283H99.7879Z" fill="white"/>
<path id="&#237;&#140;&#168;&#236;&#138;&#164; 4647" d="M114.447 16.7495V19.6985H106.366V0.208008H109.845V16.7469L114.447 16.7495Z" fill="white"/>
</g>
<g id="group_2">
<g id="group_3">
<path id="&#237;&#140;&#168;&#236;&#138;&#164; 2271" d="M18.1813 0L13.886 13.2684C13.8595 13.3522 13.804 13.4236 13.7296 13.4698C13.6552 13.5161 13.5667 13.534 13.4803 13.5205C13.3938 13.507 13.315 13.4628 13.2581 13.3961C13.2013 13.3293 13.17 13.2443 13.1701 13.1564V0H0V5.96866H6.36459V20.0067H18.872L25.6735 0H18.1813Z" fill="#FF153C"/>
</g>
</g>
</g>
<defs>
<clipPath id="clip0_23_1966">
<rect width="114.444" height="20" fill="white"/>
</clipPath>
</defs>
</svg>
