<svg width="72" height="72" viewBox="0 0 72 72" fill="none" xmlns="http://www.w3.org/2000/svg">
<g id="Device=Desktop" clip-path="url(#clip0_23_1999)">
<g id="&#236;&#158;&#172;&#236;&#131;&#157;">
<g id="&#237;&#131;&#128;&#236;&#155;&#144; 373">
<path id="Vector" d="M36 66C52.5685 66 66 52.5685 66 36C66 19.4315 52.5685 6 36 6C19.4315 6 6 19.4315 6 36C6 52.5685 19.4315 66 36 66Z" fill="black" fill-opacity="0.43"/>
<path id="Vector_2" d="M36 65.25C52.1543 65.25 65.25 52.1543 65.25 36C65.25 19.8457 52.1543 6.75 36 6.75C19.8457 6.75 6.75 19.8457 6.75 36C6.75 52.1543 19.8457 65.25 36 65.25Z" stroke="white" stroke-width="1.5"/>
</g>
<path id="&#235;&#139;&#164;&#234;&#176;&#129;&#237;&#152;&#149; 4" d="M46.7294 36.3188C46.7581 36.3368 46.7818 36.3618 46.7982 36.3914C46.8146 36.4211 46.8232 36.4544 46.8232 36.4883C46.8232 36.5222 46.8146 36.5555 46.7982 36.5852C46.7818 36.6148 46.7581 36.6398 46.7294 36.6578L31.3064 46.2968C31.2761 46.3158 31.2413 46.3262 31.2056 46.3272C31.1698 46.3281 31.1345 46.3194 31.1033 46.302C31.072 46.2847 31.046 46.2593 31.0279 46.2285C31.0098 46.1977 31.0003 46.1626 31.0004 46.1268V26.8498C31.0003 26.8141 31.0098 26.779 31.0279 26.7482C31.046 26.7173 31.072 26.6919 31.1033 26.6746C31.1345 26.6572 31.1698 26.6486 31.2056 26.6495C31.2413 26.6504 31.2761 26.6609 31.3064 26.6798L46.7294 36.3188Z" fill="white"/>
</g>
</g>
<defs>
<clipPath id="clip0_23_1999">
<rect width="72" height="72" fill="white"/>
</clipPath>
</defs>
</svg>
