<svg width="96" height="30" viewBox="0 0 96 30" fill="none" xmlns="http://www.w3.org/2000/svg">
<g id="Device=Desktop">
<rect width="96" height="30" rx="4" fill="#C73E4E"/>
<path id="Quick VOD" d="M14.3438 17.4531L16.0156 19.6406C15.6406 19.7734 15.2344 19.8438 14.8125 19.8438C12.7656 19.8359 11.1797 18.2578 11.1719 15.3438C11.1797 12.4219 12.7656 10.8438 14.8125 10.8438C16.8594 10.8438 18.4453 12.4219 18.4531 15.3438C18.4453 17.0312 17.9141 18.2734 17.0703 19.0156L15.875 17.4531H14.3438ZM9.8125 15.3438C9.80469 18.9219 11.9062 21.1562 14.8125 21.1562C15.5469 21.1562 16.2344 21.0156 16.8438 20.7422L17.8281 22.0625H19.3594L17.8828 20.0938C19.0859 19.1016 19.8203 17.4609 19.8125 15.3438C19.8203 11.7656 17.7109 9.53125 14.8125 9.53125C11.9062 9.53125 9.80469 11.7656 9.8125 15.3438ZM27.0625 17.5156C27.0547 19.1016 25.8516 19.8203 24.8906 19.8125C23.8047 19.8203 23.0469 19.0312 23.0469 17.8125V12.5156H21.7031V17.9062C21.6953 20.0625 22.8438 21.1094 24.4531 21.1094C25.7266 21.1094 26.5703 20.4219 26.9688 19.5625H27.0625V21H28.3906V12.5156H27.0625V17.5156ZM30.5469 21H31.8906V12.5156H30.5469V21ZM30.2812 10.2188C30.2734 10.7109 30.7031 11.1094 31.2188 11.1094C31.7344 11.1094 32.1641 10.7109 32.1719 10.2188C32.1641 9.71875 31.7344 9.32031 31.2188 9.32812C30.7031 9.32031 30.2734 9.71875 30.2812 10.2188ZM37.5 21.1719C39.3828 21.1797 40.6328 20.0156 40.8438 18.5H39.5C39.2656 19.4297 38.5 19.9688 37.5 19.9688C35.9609 19.9688 34.9766 18.7109 34.9688 16.75C34.9766 14.8438 35.9844 13.5938 37.5 13.5938C38.6328 13.5938 39.3047 14.3047 39.5 15.0781H40.8438C40.6328 13.4766 39.2734 12.4062 37.4688 12.4062C35.1641 12.4062 33.625 14.2188 33.625 16.7969C33.625 19.3438 35.0938 21.1797 37.5 21.1719ZM42.5 21H43.8438V17.8359L44.7422 17L47.8906 21H49.5938L45.75 16.1484L49.3281 12.5156H47.6719L44 16.2656H43.8438V9.6875H42.5V21ZM55.4688 9.6875H53.9844L58.125 21H59.6094L63.75 9.6875H62.2656L58.9219 19.1719H58.7969L55.4688 9.6875ZM74.2969 15.3438C74.3047 11.7656 72.1953 9.53125 69.2969 9.53125C66.3906 9.53125 64.2891 11.7656 64.2969 15.3438C64.2891 18.9219 66.3906 21.1562 69.2969 21.1562C72.1953 21.1562 74.3047 18.9219 74.2969 15.3438ZM65.6562 15.3438C65.6641 12.4219 67.25 10.8438 69.2969 10.8438C71.3438 10.8438 72.9297 12.4219 72.9375 15.3438C72.9297 18.2578 71.3438 19.8359 69.2969 19.8438C67.25 19.8359 65.6641 18.2578 65.6562 15.3438ZM79.875 21C83.3203 21 85.2656 18.8594 85.2656 15.3281C85.2656 11.8047 83.3203 9.6875 80.0156 9.6875H76.3594V21H79.875ZM77.7656 19.75V10.9375H79.9219C82.5547 10.9375 83.8906 12.5938 83.8906 15.3281C83.8906 18.0703 82.5547 19.75 79.7812 19.75H77.7656Z" fill="white"/>
</g>
</svg>
