<svg width="50" height="50" viewBox="0 0 50 50" fill="none" xmlns="http://www.w3.org/2000/svg">
<g clip-path="url(#clip0_159_10488)">
<path d="M34.1149 35.8809L24.9987 26.7647L15.8825 35.8809C15.7674 35.9984 15.6296 36.091 15.4778 36.1543C15.326 36.2177 15.1632 36.2504 14.9987 36.2496C14.751 36.25 14.5089 36.1771 14.3029 36.0396C14.0968 35.9021 13.9362 35.707 13.8415 35.4781C13.7468 35.2492 13.722 34.9958 13.7707 34.753C13.8194 34.5101 13.9393 34.288 14.1149 34.1133L23.2311 24.9971L14.1149 15.8809C13.8872 15.6452 13.7611 15.3297 13.764 15.002C13.7668 14.6743 13.8984 14.3597 14.1302 14.128C14.3619 13.8962 14.6752 13.7646 15.003 13.7618C15.3307 13.7589 15.6467 13.8856 15.8825 14.1133L24.9987 23.2295L34.1149 14.1133C34.3507 13.8856 34.6667 13.7589 34.9944 13.7618C35.3222 13.7646 35.6355 13.8962 35.8672 14.128C36.099 14.3597 36.2306 14.6743 36.2334 15.002C36.2363 15.3297 36.1102 15.6452 35.8825 15.8809L26.7663 24.9971L35.8825 34.1133C36.0019 34.2286 36.0971 34.3661 36.1626 34.5186C36.2281 34.6711 36.2625 34.836 36.264 35.002C36.2654 35.168 36.234 35.3318 36.1712 35.4854C36.1083 35.639 36.0151 35.7782 35.8977 35.8956C35.7804 36.0129 35.6412 36.1061 35.4876 36.169C35.334 36.2318 35.1689 36.2632 35.003 36.2618C34.837 36.2603 34.6733 36.2272 34.5208 36.1617C34.3683 36.0962 34.2302 36.0003 34.1149 35.8809V35.8809Z" fill="white"/>
</g>
<defs>
<clipPath id="clip0_159_10488">
<rect width="50" height="50" fill="white"/>
</clipPath>
</defs>
</svg>
