<svg width="132" height="42" viewBox="0 0 132 42" fill="none" xmlns="http://www.w3.org/2000/svg">
<g clip-path="url(#clip0_2_106)">
<mask id="mask0_2_106" style="mask-type:luminance" maskUnits="userSpaceOnUse" x="0" y="4" width="132" height="34">
<path d="M0 4.87891H131.511V37.1259H0V4.87891Z" fill="white"/>
</mask>
<g mask="url(#mask0_2_106)">
<path d="M86.1645 23.0532L92.5695 35.9788H102.522V5.65625H92.994V18.2787C92.9944 18.4695 92.9301 18.6549 92.8117 18.8045C92.6933 18.9541 92.5278 19.0592 92.342 19.1027C92.1562 19.1462 91.9612 19.1255 91.7887 19.044C91.6162 18.9624 91.4764 18.8249 91.392 18.6537L84.954 5.65625H75.0015V35.9773H84.558V23.4268C84.558 23.2361 84.6225 23.051 84.741 22.9016C84.8595 22.7523 85.0251 22.6474 85.2108 22.6041C85.3964 22.5608 85.5913 22.5817 85.7637 22.6632C85.936 22.7448 86.0757 22.8822 86.16 23.0532" fill="white"/>
<path d="M60.2625 5.65625H70.713V35.9773H60.2625V5.65625Z" fill="white"/>
<path d="M105.61 17.9465V23.5355C105.61 28.9715 107.661 32.9015 111.704 35.2145C118.154 38.906 127.441 36.6275 131.512 33.617V19.5065H122.074V28.3805L121.895 28.451C121.145 28.7418 120.34 28.8611 119.538 28.8001C118.736 28.7391 117.958 28.4994 117.261 28.0985C116.605 27.5692 116.092 26.8837 115.77 26.1048C115.447 25.326 115.326 24.4786 115.416 23.6405V17.387C115.322 16.5748 115.526 15.7561 115.991 15.0832C116.455 14.4102 117.148 13.9288 117.94 13.7285C118.803 13.5208 119.712 13.6483 120.484 14.0852C121.256 14.5221 121.833 15.2358 122.099 16.082L131.241 11.1785C130.077 9.1556 128.374 7.49559 126.322 6.38328C124.27 5.27098 121.949 4.75004 119.619 4.87848C119.003 4.87848 118.403 4.90848 117.831 4.95948C114.741 5.14415 111.792 6.31736 109.419 8.30598C108.134 9.54846 107.13 11.0517 106.474 12.7145C105.819 14.3774 105.527 16.1614 105.618 17.9465" fill="white"/>
<path d="M25.9305 5.65625H0V14.5333H7.8V35.9833H18.1155V14.5333H25.923L25.9305 5.65625Z" fill="white"/>
<path d="M37.899 36.3208L44.433 16.0183C44.4937 15.8255 44.6215 15.6609 44.7933 15.5543C44.965 15.4477 45.1693 15.4063 45.369 15.4375C45.5687 15.4688 45.7505 15.5706 45.8816 15.7245C46.0126 15.8784 46.0841 16.0742 46.083 16.2763L46.083 36.3223L55.992 36.3223L55.992 5.99977L37.2555 5.99976L27 36.3208L37.899 36.3208Z" fill="white"/>
</g>
</g>
<defs>
<clipPath id="clip0_2_106">
<rect width="132" height="42" fill="white"/>
</clipPath>
</defs>
</svg>
