<svg width="112" height="34" viewBox="0 0 112 34" fill="none" xmlns="http://www.w3.org/2000/svg">
<g clip-path="url(#clip0_2_54)">
<path fill-rule="evenodd" clip-rule="evenodd" d="M29.6664 11.4516C29.6664 7.0599 25.0211 4.95898 19.5004 4.95898C13.6 4.95898 8.19539 7.5614 6.20922 11.6258C5.65104 12.7113 5.35966 13.9143 5.35922 15.1349C5.34302 16.182 5.63892 17.2103 6.20922 18.0887C6.74208 18.793 7.44519 19.3503 8.25253 19.7084C9.05987 20.0665 9.94497 20.2135 10.8247 20.1357C13.5419 20.1357 15.7321 18.644 15.7321 16.0132C15.7339 15.9092 15.7134 15.8059 15.6717 15.7105C15.6301 15.6151 15.5684 15.5298 15.4908 15.4605C15.4132 15.3911 15.3216 15.3392 15.2222 15.3085C15.1227 15.2777 15.0178 15.2688 14.9146 15.2822C14.2134 15.2822 14.0391 15.7795 14.0646 16.0132C14.1275 16.4805 14.0887 16.9558 13.9511 17.4067C13.8134 17.8576 13.5801 18.2735 13.267 18.626C12.9539 18.9785 12.5685 19.2592 12.137 19.4491C11.7054 19.639 11.238 19.7336 10.7666 19.7263C8.34272 19.7263 7.31989 17.6495 7.31989 15.4282C7.31989 10.8948 10.7383 7.91273 14.2729 6.59665C15.9348 5.97504 17.6978 5.6676 19.4721 5.68998C23.5039 5.68998 26.775 7.23982 26.775 11.3567C26.7237 13.0592 26.044 14.6824 24.8669 15.9135C23.6897 17.1445 22.0985 17.8961 20.4 18.0235L20.5416 17.556C21.1381 14.9534 22.1544 12.4653 23.5506 10.1893C23.6589 10.0011 23.7861 9.82455 23.9303 9.66232L23.7263 9.42857C23.4159 9.60641 23.1224 9.8122 22.8494 10.0434C16.1911 15.2199 15.9842 29.8413 7.13289 29.8413C6.82996 29.8521 6.5267 29.8327 6.22764 29.7832C5.42114 29.7155 4.67315 29.3349 4.14366 28.7228C3.61417 28.1107 3.34521 27.3157 3.3943 26.5079C3.3943 26.1863 3.51189 25.7188 3.51189 25.4553C3.51779 25.3358 3.49959 25.2163 3.45837 25.1039C3.41714 24.9915 3.35374 24.8886 3.27192 24.8012C3.19011 24.7139 3.09156 24.6438 2.98213 24.5953C2.87271 24.5468 2.75465 24.5208 2.63497 24.5189H2.55705C1.76797 24.5189 1.44639 25.1621 1.42372 26.039C1.36564 28.6414 3.26539 30.1331 6.21489 30.4306C6.53647 30.4306 6.85805 30.4604 7.20655 30.4604C14.1298 30.4604 18.3656 25.2258 20.1776 18.8806C21.0892 18.759 21.9894 18.5633 22.8692 18.2955C26.0822 17.4186 29.6692 15.2539 29.6692 11.453" fill="#C4C4C4"/>
<path fill-rule="evenodd" clip-rule="evenodd" d="M68.4675 17.9622C68.08 20.262 67.1926 22.4488 65.8679 24.3683C65.3423 25.1574 64.8762 25.36 64.4668 25.36C63.8831 25.36 63.7372 24.8925 63.8236 24.2267C64.2302 22.0977 65.0755 20.0767 66.3056 18.2922C66.9488 17.4153 67.3568 17.064 67.8541 17.064C68.3216 17.064 68.4675 17.4734 68.4675 17.9707M41.5409 24.6942C41.191 24.6942 40.9275 24.5766 40.9275 24.1091C41.2314 22.2675 42.0059 20.5357 43.1757 19.0813C43.5222 18.52 43.9913 18.0444 44.5477 17.6902C45.1041 17.3359 45.7335 17.1122 46.3887 17.0357L44.8417 20.4852C43.673 23.1457 42.4759 24.6942 41.5409 24.6942M26.3542 24.6942C26.0043 24.6942 25.7706 24.5766 25.7706 24.1091C26.1007 22.2755 26.8723 20.5499 28.0188 19.0813C28.3653 18.52 28.8344 18.0444 29.3908 17.6902C29.9472 17.3359 30.5766 17.1122 31.2318 17.0357L29.7131 20.4852C28.5444 23.0862 27.2892 24.6942 26.3542 24.6942ZM95.5385 12.9727H93.0849L92.5593 14.259L91.596 16.4222H90.4626L90.1127 17.1532H91.3098L89.879 20.2812C88.8561 22.5026 87.2794 24.6729 86.3741 24.6729C86.1701 24.6729 86.0525 24.5851 86.0525 24.3811C86.0857 24.0565 86.1749 23.7402 86.316 23.4461C86.6079 22.7732 87.0754 21.8084 87.4253 21.0788C88.0391 20.0144 88.4827 18.8605 88.74 17.659C88.7503 17.4633 88.7185 17.2676 88.6465 17.0853C88.5746 16.903 88.4642 16.7383 88.323 16.6024C88.1817 16.4666 88.0129 16.3627 87.8279 16.2979C87.643 16.233 87.4462 16.2088 87.2511 16.2267C86.6525 16.2775 86.0709 16.4517 85.543 16.7384C85.0151 17.0252 84.5524 17.4182 84.184 17.8927L84.7974 16.4307H82.4854L80.6168 20.6694C79.8858 22.1725 78.3671 24.6517 77.4038 24.6517C77.1998 24.6517 77.112 24.5341 77.112 24.3301C77.1318 24.1486 77.1796 23.9713 77.2536 23.8045C77.3415 23.6288 78.4507 20.9981 78.4507 20.9981L80.4652 16.35H78.0116L76.0282 20.8833C75.4446 22.2858 73.9032 24.6545 72.903 24.6545C72.8605 24.6609 72.817 24.6582 72.7756 24.6467C72.7341 24.6351 72.6956 24.6148 72.6625 24.5872C72.6294 24.5597 72.6026 24.5254 72.5837 24.4867C72.5649 24.448 72.5545 24.4057 72.5531 24.3627V24.3046C72.6012 23.9478 72.7099 23.6018 72.8747 23.2817L73.8975 21.0023L76.0225 16.3542H73.5689L73.1014 17.4068C72.9492 17.82 72.6861 18.1832 72.341 18.4567C71.9958 18.7301 71.582 18.9031 71.145 18.9567C70.6775 18.9567 70.4437 18.781 70.3573 18.6053C70.3557 18.2736 70.2858 17.9457 70.152 17.6421C70.0181 17.3386 69.8232 17.0659 69.5793 16.841C69.3354 16.6161 69.0478 16.4438 68.7344 16.335C68.421 16.2261 68.0885 16.183 67.7577 16.2083C66.8554 16.2329 65.9749 16.4909 65.202 16.9572C64.4291 17.4235 63.7902 18.0821 63.3476 18.8688C62.7028 19.8618 62.2105 20.9458 61.887 22.0847C61.0115 23.5169 60.1049 24.6347 59.3753 24.6347C59.3316 24.6411 59.287 24.6372 59.245 24.6233C59.2031 24.6094 59.1649 24.5859 59.1337 24.5547C59.1024 24.5234 59.0789 24.4853 59.065 24.4434C59.0512 24.4014 59.0473 24.3568 59.0537 24.3131C59.1123 23.9687 59.2207 23.6347 59.3753 23.3214L60.9818 19.9016C61.3814 19.146 61.6387 18.3234 61.7411 17.4748C61.7446 17.3014 61.7115 17.1292 61.644 16.9694C61.5766 16.8096 61.4763 16.6658 61.3496 16.5473C61.2229 16.4288 61.0728 16.3383 60.9089 16.2816C60.7449 16.2249 60.5709 16.2033 60.3981 16.2182C59.7397 16.2651 59.0976 16.4446 58.5104 16.746C57.9232 17.0474 57.403 17.4644 56.9811 17.9721C57.0291 17.8012 57.0488 17.6237 57.0392 17.4465C57.0623 17.2774 57.0455 17.1052 56.9902 16.9438C56.9349 16.7823 56.8425 16.6361 56.7205 16.5167C56.5986 16.3973 56.4503 16.3082 56.2877 16.2563C56.1251 16.2045 55.9526 16.1915 55.784 16.2182C55.1682 16.2708 54.5707 16.4545 54.0317 16.757C53.4927 17.0595 53.0246 17.4738 52.6589 17.9721L53.3006 16.3939H51.0807L49.1824 20.6609C48.2771 22.6442 46.8463 24.6361 46.0289 24.6361C45.8532 24.6361 45.7371 24.5482 45.7371 24.3145C45.861 23.7183 46.057 23.1393 46.3207 22.5904L48.8325 16.9237C49.0081 16.4846 47.8096 16.2154 46.291 16.2154C44.6791 16.2952 43.1432 16.9247 41.939 17.999C41.4556 18.4889 40.8509 18.8418 40.1866 19.0218C40.0449 19.0218 39.9825 18.934 39.9825 18.8462C39.9825 18.4948 40.8 17.5315 40.8 16.7707C40.8 16.4194 40.6243 16.2154 40.1568 16.2154C39.0643 16.4214 38.0923 17.0384 37.441 17.9395L38.0842 16.3897H35.894L34.0354 20.6524C33.1301 22.6357 31.6412 24.7452 30.8521 24.7452C30.6481 24.7452 30.5306 24.6276 30.5306 24.3938C30.6581 23.7625 30.8747 23.1524 31.1737 22.5819L33.6557 16.9152C33.8314 16.4761 32.6329 16.2069 31.1156 16.2069C30.0142 16.2766 28.9422 16.5909 27.9774 17.1268C27.0126 17.6627 26.1794 18.4069 25.5382 19.3052C24.3332 20.6974 23.5706 22.4173 23.3481 24.2451C23.3153 24.4946 23.3387 24.7483 23.4168 24.9876C23.4949 25.2268 23.6255 25.4456 23.7991 25.6278C23.9728 25.81 24.185 25.951 24.4202 26.0404C24.6555 26.1299 24.9077 26.1656 25.1586 26.1448C25.7824 26.0752 26.3833 25.8688 26.9183 25.5405C27.4533 25.2121 27.9094 24.7698 28.254 24.2451C28.2106 24.408 28.1812 24.5744 28.1661 24.7423C28.1661 25.5612 28.4877 26.1448 29.4808 26.1448C30.0779 26.0513 30.649 25.8343 31.1576 25.5077C31.6662 25.1811 32.1011 24.752 32.4346 24.2479L31.705 25.972H34.0708L36.4012 20.685C37.1605 18.9609 38.036 18.084 38.2698 18.084C38.3576 18.084 38.4115 18.1137 38.4115 18.1718C38.4115 18.3475 38.0318 18.8447 38.0318 19.2825C38.0318 19.7202 38.2655 20.0716 38.937 20.0716C39.5024 20.0287 40.0464 19.8371 40.5138 19.5162C39.3831 20.8575 38.6813 22.5074 38.4993 24.2522C38.4615 24.5026 38.4814 24.7584 38.5577 24.9999C38.6339 25.2414 38.7643 25.4623 38.9391 25.6456C39.1138 25.829 39.3282 25.9699 39.5657 26.0577C39.8033 26.1454 40.0578 26.1777 40.3098 26.1519C40.9433 26.044 41.5479 25.8067 42.0856 25.4547C42.6233 25.1028 43.0826 24.6437 43.435 24.1062C43.4012 24.2996 43.3817 24.4951 43.3769 24.6913C43.3598 24.88 43.3829 25.0702 43.4446 25.2493C43.5063 25.4284 43.6053 25.5924 43.735 25.7306C43.8647 25.8687 44.0221 25.9778 44.197 26.0506C44.3719 26.1235 44.5602 26.1585 44.7496 26.1533C45.7725 26.1533 46.5601 25.5102 47.583 24.2833L46.8236 25.9833H49.2773L51.4972 20.9258C52.4605 18.7342 53.805 17.5641 54.4467 17.5641C54.5884 17.5343 54.7386 17.6817 54.7683 17.8276V17.8857C54.7315 18.137 54.6629 18.3826 54.5643 18.6167L51.3513 26.0117H53.8631L56.1113 20.8677C57.103 18.6464 58.1853 17.5641 58.973 17.5641C59.235 17.5641 59.3229 17.6817 59.3229 17.9437C59.3036 18.2266 59.2345 18.5038 59.1189 18.7626L56.9287 23.4376C56.7179 23.8781 56.5893 24.3534 56.549 24.8401C56.549 25.5711 56.9287 26.1845 58.038 26.1845C59.439 26.1845 60.52 25.1036 61.7468 23.524V23.8456C61.746 24.1862 61.8175 24.5231 61.9566 24.8341C62.0956 25.1451 62.2991 25.423 62.5535 25.6495C62.8079 25.876 63.1074 26.046 63.4323 26.1483C63.7573 26.2505 64.1002 26.2827 64.4385 26.2426C66.6867 26.2426 68.4689 24.7225 69.5781 22.2674C69.9822 21.3978 70.2484 20.4706 70.3672 19.5191C70.6115 19.6386 70.8843 19.6876 71.1549 19.6607C71.5235 19.678 71.8891 19.5864 72.2061 19.3972L71.8264 20.2472C71.3886 21.1822 70.8914 22.2051 70.5117 23.0806C70.2641 23.5941 70.1156 24.1497 70.074 24.7182C70.0541 24.9201 70.0787 25.1238 70.1461 25.3152C70.2134 25.5065 70.3219 25.6807 70.4638 25.8256C70.6057 25.9705 70.7777 26.0826 70.9676 26.1539C71.1575 26.2252 71.3607 26.254 71.5629 26.2383C72.2422 26.1105 72.8881 25.8448 73.4607 25.4577C74.0333 25.0705 74.5204 24.57 74.8921 23.9872C74.8324 24.2561 74.8029 24.5307 74.8042 24.8061C74.8042 25.5371 75.038 26.2383 76.0311 26.2383C76.6386 26.1563 77.2205 25.9407 77.7349 25.6071C78.2493 25.2735 78.6834 24.8301 79.006 24.3088L78.2765 26.0088H80.7301L82.6866 21.5364C83.7958 19.0218 84.9065 17.5017 85.9576 17.5017C86.0413 17.5 86.1229 17.5286 86.1872 17.5822C86.2515 17.6358 86.2942 17.7109 86.3076 17.7936V17.8814C86.0265 18.8305 85.6342 19.743 85.1388 20.6C84.7386 21.4274 84.3606 22.2654 84.0055 23.1132C83.7448 23.6318 83.5957 24.1993 83.5677 24.7792C83.55 24.9639 83.5733 25.1503 83.636 25.325C83.6987 25.4997 83.7992 25.6583 83.9304 25.7896C84.0615 25.9209 84.2201 26.0216 84.3947 26.0845C84.5693 26.1474 84.7557 26.1709 84.9405 26.1533C85.6814 26.0282 86.3873 25.7471 87.0115 25.3288C87.6358 24.9104 88.1641 24.3643 88.5615 23.7266C88.3895 24.2253 88.3009 24.7489 88.2994 25.2764C88.2662 25.5569 88.2955 25.8413 88.3851 26.1091C88.4748 26.3769 88.6227 26.6216 88.8181 26.8255C89.0135 27.0295 89.2516 27.1876 89.5154 27.2887C89.7791 27.3897 90.062 27.4311 90.3436 27.4099C91.1412 27.4005 91.9165 27.1453 92.5636 26.6789C93.4652 25.9731 94.2448 25.1241 94.8713 24.1657L94.4335 23.7563C93.9087 24.5483 93.2689 25.2578 92.5352 25.8615C92.1847 26.1637 91.7425 26.3389 91.28 26.3587C90.7545 26.3587 90.4301 26.0952 90.4301 25.4521C90.5382 24.5079 90.805 23.5888 91.2191 22.7335C91.2191 22.7335 91.8906 21.2134 92.5338 19.7812C93.0594 18.5529 93.585 17.3842 93.6671 17.1504H95.2736L95.5952 16.4194H94.0185L95.5385 12.9727Z" fill="#C4C4C4"/>
<path fill-rule="evenodd" clip-rule="evenodd" d="M106.308 16.4334L108.537 11.2441H105.896L103.64 16.4334H98.0531L97.104 18.5981H102.713L100.487 23.7278H103.128L105.383 18.5981H110.992L111.911 16.4334H106.308Z" fill="#C4C4C4"/>
</g>
<defs>
<clipPath id="clip0_2_54">
<rect width="111.917" height="34" fill="white"/>
</clipPath>
</defs>
</svg>
