<svg width="40" height="40" viewBox="0 0 40 40" fill="none" xmlns="http://www.w3.org/2000/svg">
<g clip-path="url(#clip0_63_3591)">
<path d="M37.4194 0H2.58065C1.15539 0 0 1.15539 0 2.58065V37.4194C0 38.8446 1.15539 40 2.58065 40H37.4194C38.8446 40 40 38.8446 40 37.4194V2.58065C40 1.15539 38.8446 0 37.4194 0Z" fill="black"/>
<path d="M3.2258 14.1937V6.4518C3.2258 6.09549 3.51464 5.80664 3.87096 5.80664H20.6452C21.0015 5.80664 21.2903 6.09549 21.2903 6.4518V11.2905L24.0118 6.14994C24.1236 5.93874 24.343 5.80664 24.582 5.80664H37.1543C37.599 5.80664 37.9103 6.24594 37.763 6.66548L27.5708 35.6977C27.4801 35.9563 27.236 36.1292 26.9621 36.1292H9.67741C9.32109 36.1292 9.03225 35.8404 9.03225 35.4841V15.4841C9.03225 15.1277 8.74341 14.8389 8.38709 14.8389H3.87096C3.51465 14.8389 3.2258 14.5501 3.2258 14.1937Z" fill="#FF002F"/>
<path fill-rule="evenodd" clip-rule="evenodd" d="M20.9677 21.8954C20.5275 22.6888 19.6813 23.2257 18.7097 23.2257C17.2844 23.2257 16.129 22.0703 16.129 20.6451C16.129 19.2199 17.2844 18.0645 18.7097 18.0645C19.6813 18.0645 20.5275 18.6014 20.9677 19.3948C21.408 18.6014 22.2542 18.0645 23.2258 18.0645C24.651 18.0645 25.8064 19.2199 25.8064 20.6451C25.8064 22.0703 24.651 23.2257 23.2258 23.2257C22.2542 23.2257 21.408 22.6888 20.9677 21.8954Z" fill="white"/>
<path fill-rule="evenodd" clip-rule="evenodd" d="M18.7097 21.9361C19.4223 21.9361 20 21.3584 20 20.6458C20 19.9331 19.4223 19.3555 18.7097 19.3555C17.997 19.3555 17.4194 19.9331 17.4194 20.6458C17.4194 21.3584 17.997 21.9361 18.7097 21.9361ZM23.2258 21.9361C23.9385 21.9361 24.5161 21.3584 24.5161 20.6458C24.5161 19.9331 23.9385 19.3555 23.2258 19.3555C22.5132 19.3555 21.9355 19.9331 21.9355 20.6458C21.9355 21.3584 22.5132 21.9361 23.2258 21.9361Z" fill="#030303"/>
<path fill-rule="evenodd" clip-rule="evenodd" d="M19.3548 26.673C20.0675 26.673 20.6452 26.0953 20.6452 25.3827C20.6452 25.3075 20.6387 25.2338 20.6264 25.1621L18.3154 25.3065C18.2233 25.3123 18.139 25.336 18.0646 25.3733C18.0645 25.3765 18.0645 25.3796 18.0645 25.3827C18.0645 26.0953 18.6422 26.673 19.3548 26.673Z" fill="white"/>
<path d="M17.0711 25.4609L24.8149 24.8652" stroke="black" stroke-linecap="round"/>
<path fill-rule="evenodd" clip-rule="evenodd" d="M27.742 23.5491C27.742 23.7273 27.5975 23.8717 27.4194 23.8717C27.2413 23.8717 27.0968 23.7273 27.0968 23.5491C27.0968 23.371 27.2413 23.2266 27.4194 23.2266C27.5975 23.2266 27.742 23.371 27.742 23.5491ZM29.6774 23.5491C29.6774 23.7273 29.533 23.8717 29.3549 23.8717C29.1767 23.8717 29.0323 23.7273 29.0323 23.5491C29.0323 23.371 29.1767 23.2266 29.3549 23.2266C29.533 23.2266 29.6774 23.371 29.6774 23.5491ZM28.0645 25.162C28.2427 25.162 28.3871 25.0176 28.3871 24.8395C28.3871 24.6613 28.2427 24.5169 28.0645 24.5169C27.8864 24.5169 27.742 24.6613 27.742 24.8395C27.742 25.0176 27.8864 25.162 28.0645 25.162Z" fill="#FF305B"/>
<path fill-rule="evenodd" clip-rule="evenodd" d="M11.6129 23.5491C11.6129 23.7273 11.7574 23.8717 11.9355 23.8717C12.1136 23.8717 12.2581 23.7273 12.2581 23.5491C12.2581 23.371 12.1136 23.2266 11.9355 23.2266C11.7574 23.2266 11.6129 23.371 11.6129 23.5491ZM13.5484 23.5491C13.5484 23.7273 13.6929 23.8717 13.871 23.8717C14.0491 23.8717 14.1936 23.7273 14.1936 23.5491C14.1936 23.371 14.0491 23.2266 13.871 23.2266C13.6929 23.2266 13.5484 23.371 13.5484 23.5491ZM13.2258 25.162C13.0477 25.162 12.9032 25.0176 12.9032 24.8395C12.9032 24.6613 13.0477 24.5169 13.2258 24.5169C13.4039 24.5169 13.5484 24.6613 13.5484 24.8395C13.5484 25.0176 13.4039 25.162 13.2258 25.162Z" fill="#FF305B"/>
</g>
<defs>
<clipPath id="clip0_63_3591">
<rect width="40" height="40" fill="white"/>
</clipPath>
</defs>
</svg>
